<svg width="320" height="320" viewBox="0 0 320 320" fill="none" xmlns="http://www.w3.org/2000/svg">
  <defs>
    <linearGradient id="bg" x1="44" y1="34" x2="274" y2="284" gradientUnits="userSpaceOnUse">
      <stop stop-color="#341305"/>
      <stop offset="1" stop-color="#1A0A00"/>
    </linearGradient>
    <linearGradient id="accent" x1="86" y1="98" x2="236" y2="232" gradientUnits="userSpaceOnUse">
      <stop stop-color="#FF9128"/>
      <stop offset="1" stop-color="#FF5F00"/>
    </linearGradient>
    <linearGradient id="gold" x1="96" y1="84" x2="214" y2="226" gradientUnits="userSpaceOnUse">
      <stop stop-color="#FFD56B"/>
      <stop offset="1" stop-color="#F4A22D"/>
    </linearGradient>
    <filter id="shadow" x="18" y="18" width="284" height="284" filterUnits="userSpaceOnUse" color-interpolation-filters="sRGB">
      <feDropShadow dx="0" dy="12" stdDeviation="16" flood-color="#120600" flood-opacity="0.28"/>
    </filter>
  </defs>

  <g filter="url(#shadow)">
    <rect x="38" y="30" width="244" height="244" rx="58" fill="url(#bg)"/>
    <rect x="47" y="39" width="226" height="226" rx="49" stroke="rgba(255,255,255,0.08)" stroke-width="2"/>
  </g>

  <path d="M90 188C90 159.281 113.281 136 142 136H178C206.719 136 230 159.281 230 188V190C230 212.091 212.091 230 190 230H130C107.909 230 90 212.091 90 190V188Z" fill="url(#accent)"/>
  <path d="M106 190C106 169.013 123.013 152 144 152H176C196.987 152 214 169.013 214 190C214 203.255 203.255 214 190 214H130C116.745 214 106 203.255 106 190Z" fill="#FFF7EF"/>
  <path d="M100 191H220" stroke="#7D2D08" stroke-width="11" stroke-linecap="round"/>
  <path d="M108 191H212" stroke="url(#gold)" stroke-width="6" stroke-linecap="round"/>

  <path d="M132 126C124 114 124 102 132 92" stroke="url(#gold)" stroke-width="7" stroke-linecap="round"/>
  <path d="M160 120C152 107 152 94 160 82" stroke="url(#gold)" stroke-width="7" stroke-linecap="round"/>
  <path d="M188 126C180 114 180 102 188 92" stroke="url(#gold)" stroke-width="7" stroke-linecap="round"/>

  <path d="M216 116C231.589 104.896 252.496 108.284 263.5 121.6C248.747 128.366 229.278 126.751 216 116Z" fill="url(#accent)"/>
  <path d="M243 99C248.949 88.08 260.897 81.887 273.5 83.8C270.466 95.575 261.649 105.184 250.1 110.1C246.417 107.308 244.004 103.432 243 99Z" fill="#2E7D32"/>
  <circle cx="255" cy="108" r="7" fill="#FFD56B"/>
</svg>
